<?xml version="1.0" standalone="no"?>
<!DOCTYPE svg PUBLIC "-//W3C//DTD SVG 20010904//EN"
 "http://www.w3.org/TR/2001/REC-SVG-20010904/DTD/svg10.dtd">
<svg version="1.0" xmlns="http://www.w3.org/2000/svg"
 width="270.000000pt" height="297.000000pt" viewBox="0 0 270.000000 297.000000"
 preserveAspectRatio="xMidYMid meet">

<g transform="translate(0.000000,297.000000) scale(0.100000,-0.100000)"
fill="#000000" stroke="none">
<path d="M1161 2845 c-18 -8 -54 -15 -80 -15 -61 -1 -137 -33 -240 -103 -46
-31 -89 -57 -96 -57 -7 0 -19 -7 -26 -17 -13 -15 -12 -15 8 -4 22 11 22 10 -3
-26 -50 -74 -101 -192 -95 -221 1 -8 -2 -19 -7 -25 -13 -16 -7 -201 8 -269 6
-29 19 -80 27 -113 8 -33 17 -87 18 -120 2 -33 12 -79 22 -103 l20 -42 13 57
c7 32 15 62 17 67 8 13 23 -16 23 -46 0 -15 13 -57 30 -92 24 -54 37 -69 70
-86 56 -29 88 -22 40 8 -20 13 -43 19 -54 16 -13 -4 -17 -2 -14 7 3 8 -3 30
-14 49 -25 47 -23 79 5 89 12 5 26 5 31 0 18 -16 28 -9 11 7 -14 15 -14 17 2
29 9 7 23 11 30 8 7 -3 13 2 13 10 0 8 -6 17 -12 20 -8 2 -9 8 -4 13 5 5 15
-1 23 -13 20 -29 87 -33 102 -5 8 15 11 14 20 -10 6 -17 19 -28 31 -29 70 -5
86 -37 55 -112 -18 -44 -91 -97 -134 -97 -17 0 -31 -5 -31 -11 0 -12 82 -4
111 11 34 19 88 91 99 132 15 55 26 68 60 68 35 0 46 -14 60 -75 6 -28 22 -67
35 -87 14 -21 25 -41 25 -45 1 -10 29 -43 53 -62 15 -12 17 -12 12 1 -5 12 4
15 52 14 74 -1 85 17 15 25 -60 8 -90 25 -126 72 -30 40 -36 115 -11 141 16
15 50 16 75 1 8 -4 12 -4 7 0 -7 8 20 45 33 45 4 0 10 -8 13 -19 5 -19 34 -28
117 -37 72 -8 90 -13 90 -29 0 -25 27 -17 34 10 9 37 29 30 49 -17 15 -33 17
-55 12 -101 -7 -57 -6 -58 13 -48 22 12 67 91 52 91 -5 0 -7 6 -4 14 3 8 11
13 18 10 8 -3 18 7 24 23 21 59 51 171 62 238 6 39 15 79 20 90 37 84 33 208
-11 329 -17 47 -42 102 -55 121 -13 20 -24 40 -24 44 0 12 -99 103 -151 138
-51 35 -129 72 -204 98 -27 9 -54 20 -60 24 -5 4 -32 9 -60 10 -27 2 -57 7
-67 12 -26 14 -139 10 -177 -6z m93 -15 c-7 -7 -19 -7 -35 -1 -23 9 -22 10 11
10 23 1 31 -2 24 -9z m46 -10 c-8 -5 -19 -10 -25 -10 -5 0 -3 5 5 10 8 5 20
10 25 10 6 0 3 -5 -5 -10z m-157 -571 l22 -20 -24 9 c-14 5 -27 14 -29 20 -6
18 6 14 31 -9z m-96 -135 c3 3 -2 15 -12 26 -10 11 -14 20 -9 20 5 0 2 5 -6
10 -12 8 -11 10 8 10 12 0 22 -4 22 -9 0 -5 15 -14 33 -22 17 -7 45 -23 60
-36 44 -35 99 -48 154 -36 l47 11 55 -53 55 -53 -41 -20 c-22 -12 -43 -28 -46
-37 -4 -8 -17 -15 -29 -15 -22 -1 -22 -1 -5 -14 10 -8 14 -17 8 -20 -13 -9
-181 5 -181 15 0 16 -56 67 -96 87 -59 30 -164 55 -203 48 l-35 -5 25 23 c20
20 26 21 39 11 12 -11 18 -11 32 -1 10 7 15 16 11 19 -3 4 1 7 9 7 14 0 14 6
-2 49 -11 27 -17 51 -14 54 3 3 0 16 -7 29 -6 12 18 -6 55 -41 37 -35 70 -61
73 -57z m13 96 c6 -11 9 -20 7 -20 -2 0 -12 9 -22 20 -10 11 -13 20 -7 20 6 0
16 -9 22 -20z m145 -37 c35 -31 36 -33 10 -19 -37 19 -65 41 -65 50 0 13 16 4
55 -31z m-320 -213 c-3 -5 -13 -10 -21 -10 -8 0 -12 5 -9 10 3 6 13 10 21 10
8 0 12 -4 9 -10z m93 -7 c-10 -2 -28 -2 -40 0 -13 2 -5 4 17 4 22 1 32 -1 23
-4z m642 -49 c33 -18 27 -17 -50 6 -57 17 -59 19 -20 14 25 -4 56 -12 70 -20z
m-30 -84 c-6 -11 -16 -20 -22 -20 -6 0 -3 9 7 20 10 11 20 20 22 20 2 0 -1 -9
-7 -20z"/>
<path d="M968 1773 c6 -2 18 -2 25 0 6 3 1 5 -13 5 -14 0 -19 -2 -12 -5z"/>
<path d="M1645 1770 c-3 -5 -1 -10 4 -10 6 0 11 5 11 10 0 6 -2 10 -4 10 -3 0
-8 -4 -11 -10z"/>
<path d="M1553 1733 c9 -2 23 -2 30 0 6 3 -1 5 -18 5 -16 0 -22 -2 -12 -5z"/>
<path d="M1641 1651 c-58 -60 -66 -92 -14 -56 24 17 66 81 61 93 -2 4 -23 -12
-47 -37z"/>
<path d="M1008 1540 c-40 -39 -84 -74 -98 -77 -20 -5 -49 -19 -79 -39 -1 -2 3
-11 10 -21 9 -12 28 -18 54 -19 28 -1 43 -8 53 -23 8 -11 21 -21 28 -21 14 0
44 -49 44 -72 0 -7 14 -31 32 -52 21 -26 27 -40 19 -45 -20 -13 39 -67 77 -70
19 -1 32 2 32 9 0 6 6 10 12 8 7 -3 19 1 26 9 7 7 19 13 25 13 8 0 8 -3 -1 -9
-11 -6 -9 -9 6 -13 15 -4 18 -1 15 12 -4 13 3 20 24 24 33 8 113 76 113 97 0
16 56 63 88 73 12 4 20 12 17 17 -6 8 49 14 85 9 8 -1 -5 17 -30 41 -25 24
-62 61 -83 83 l-37 41 17 -45 c9 -25 25 -56 35 -70 l19 -24 -38 -11 c-24 -7
-56 -8 -88 -2 -27 4 -70 7 -95 6 -72 -2 -82 -1 -135 10 -46 11 -136 8 -177 -5
-23 -7 -24 32 -3 60 8 10 12 22 10 26 -2 4 10 25 28 46 43 52 79 104 72 104
-3 0 -38 -32 -77 -70z m92 -222 c0 5 23 9 50 10 28 0 50 -3 50 -9 0 -5 9 -4
20 3 15 10 24 10 39 1 10 -6 28 -9 39 -6 11 2 23 0 26 -6 4 -5 13 -8 21 -4 16
6 19 -5 7 -25 -5 -7 -15 -10 -24 -7 -8 3 -20 0 -26 -7 -9 -11 -4 -13 21 -12
18 1 41 5 52 9 11 4 1 -7 -22 -24 -56 -42 -95 -53 -170 -45 -74 7 -114 41
-119 99 -3 32 -1 34 16 25 11 -6 20 -7 20 -2z"/>
<path d="M1087 1286 c-8 -20 19 -36 37 -23 14 11 13 13 -8 23 -19 9 -26 9 -29
0z"/>
<path d="M1212 1240 c0 -14 2 -19 5 -12 2 6 2 18 0 25 -3 6 -5 1 -5 -13z"/>
<path d="M1251 1244 c0 -11 3 -14 6 -6 3 7 2 16 -1 19 -3 4 -6 -2 -5 -13z"/>
<path d="M1066 1514 c4 -11 12 -25 18 -33 16 -21 107 -59 147 -62 43 -3 143
42 159 71 10 19 9 21 -7 17 -75 -22 -223 -13 -306 18 -14 6 -16 3 -11 -11z"/>
<path d="M1614 1135 c-4 -8 -10 -12 -15 -9 -5 3 -9 2 -8 -3 3 -10 -179 -193
-191 -193 -6 0 -10 7 -10 15 0 12 -5 13 -27 4 -40 -15 -153 -24 -153 -12 0 6
-22 13 -49 15 -27 3 -68 14 -91 26 -39 19 -40 19 -24 1 9 -10 13 -19 8 -19 -5
0 -36 28 -70 61 l-62 62 4 -34 c2 -19 8 -59 13 -89 5 -30 14 -93 20 -140 6
-47 21 -116 33 -153 l21 -69 19 38 c12 26 16 48 12 76 -5 27 -3 38 6 38 7 0
10 7 6 15 -7 20 21 18 59 -5 17 -9 29 -24 27 -31 -2 -9 3 -7 16 5 11 10 40 20
64 23 24 3 57 13 73 21 54 27 186 146 236 212 50 67 105 160 94 160 -3 0 -8
-7 -11 -15z"/>
<path d="M1000 419 c-6 -11 -10 -27 -8 -35 2 -8 8 1 14 20 12 40 10 46 -6 15z"/>
</g>
</svg>
